<?xml version="1.0" encoding="UTF-8" standalone="no"?>
<!-- Created with Inkscape (http://www.inkscape.org/) -->

<svg
   xmlns:dc="http://purl.org/dc/elements/1.1/"
   xmlns:cc="http://creativecommons.org/ns#"
   xmlns:rdf="http://www.w3.org/1999/02/22-rdf-syntax-ns#"
   xmlns:svg="http://www.w3.org/2000/svg"
   xmlns="http://www.w3.org/2000/svg"
   xmlns:sodipodi="http://sodipodi.sourceforge.net/DTD/sodipodi-0.dtd"
   xmlns:inkscape="http://www.inkscape.org/namespaces/inkscape"
   width="300mm"
   height="75mm"
   viewBox="0 0 1062.9921 265.74803"
   id="svg2"
   version="1.1"
   inkscape:version="0.91 r13725"
   sodipodi:docname="logo_editable.svg">
  <defs
     id="defs4" />
  <sodipodi:namedview
     id="base"
     pagecolor="#ffffff"
     bordercolor="#666666"
     borderopacity="1.0"
     inkscape:pageopacity="0.0"
     inkscape:pageshadow="2"
     inkscape:zoom="1"
     inkscape:cx="264.93366"
     inkscape:cy="87.595838"
     inkscape:document-units="px"
     inkscape:current-layer="layer1"
     showgrid="false"
     inkscape:window-width="1276"
     inkscape:window-height="756"
     inkscape:window-x="0"
     inkscape:window-y="22"
     inkscape:window-maximized="1"
     fit-margin-top="0"
     fit-margin-left="0"
     fit-margin-right="0"
     fit-margin-bottom="0"
     showborder="true"
     inkscape:showpageshadow="true" />
  <metadata
     id="metadata7">
    <rdf:RDF>
      <cc:Work
         rdf:about="">
        <dc:format>image/svg+xml</dc:format>
        <dc:type
           rdf:resource="http://purl.org/dc/dcmitype/StillImage" />
        <dc:title></dc:title>
      </cc:Work>
    </rdf:RDF>
  </metadata>
  <g
     inkscape:label="Layer 1"
     inkscape:groupmode="layer"
     id="layer1"
     transform="translate(-4.320869e-7,-786.61418)">
    <g
       id="g3343"
       transform="matrix(0.5,0,0,0.5,2.664812,520.28947)">
      <g
         transform="matrix(0.99946826,-0.06088283,0.06096777,0.99807584,-12.507941,298.45599)"
         id="g4407">
        <path
           id="rect3227"
           sodipodi:nodetypes="cccccccc"
           style="fill:#f05138;fill-opacity:1;stroke-width:0"
           inkscape:connector-curvature="0"
           d="m -13.146445,420.67138 82.378586,-76.84439 62.362399,-89.34878 329.56751,230.16098 129.9088,306.7759 -6.5338,-3.42773 -319.77054,-74.37754 z" />
        <path
           id="rect3243"
           style="fill:#ffffff;stroke-width:0"
           inkscape:connector-curvature="0"
           d="m 333.27653,576.069 7.11848,-9.55985 250.16463,218.50541 1.14579,6.43924 -9.38394,-3.42887 z"
           sodipodi:nodetypes="cccccc" />
      </g>
      <path
         sodipodi:nodetypes="cccccccccccccccccccc"
         id="path3453"
         d="m 360.75729,900.15949 c -30.74396,17.76 -73.01067,19.59 -115.53376,1.36 -34.42867,-14.65 -62.99714,-40.29 -81.31025,-69.59 8.7903,7.33 19.04564,13.19 30.03351,18.31 43.91488,20.59 87.82242,19.18 118.71299,0.1 -0.0144,0 -0.0297,0 -0.0439,-0.1 -43.95148,-33.69 -81.31026,-77.64 -109.1462,-113.54 -5.86021,-5.86 -10.25535,-13.18 -14.6505,-19.78 33.69614,30.77 87.17045,69.59 106.21611,80.58 -40.28887,-42.48 -76.18261,-95.23 -74.71755,-93.76 63.72968,64.46 123.06415,101.09 123.06415,101.09 1.9706,1.1 3.4796,2.03 4.7028,2.85 1.282,-3.27 2.4027,-6.66 3.355,-10.18 10.2553,-37.36 -1.465,-79.84 -27.10337,-115 59.33447,35.89 94.49567,103.28 79.84517,159.69 -0.3882,1.52 -0.7984,3.02 -1.2453,4.49 0.1685,0.22 0.3369,0.42 0.5128,0.63 29.301,36.63 16.54933,51.37 16.54933,51.37 -38.69065,-12.58 -44.29003,-4.83 -59.24093,1.48 z"
         inkscape:connector-curvature="0"
         style="fill:#ffffff" />
    </g>
    <path
       id="rect3243-6"
       style="fill:#ffffff;stroke-width:0"
       inkscape:connector-curvature="0"
       d="m 1433.4063,474.91534 11.1194,-12.96398 200.6398,172.09143 3.2378,12.9473 -14.357,0.0166 z"
       sodipodi:nodetypes="cccccc" />
    <text
       xml:space="preserve"
       style="font-style:normal;font-variant:normal;font-weight:100;font-stretch:normal;font-size:144.37493896px;line-height:125%;font-family:'.SF Compact Rounded';-inkscape-font-specification:'.SF Compact Rounded, Thin';text-align:start;letter-spacing:0px;word-spacing:0px;writing-mode:lr-tb;text-anchor:start;fill:#000000;fill-opacity:1;stroke:none;stroke-width:1px;stroke-linecap:butt;stroke-linejoin:miter;stroke-opacity:1"
       x="351.33932"
       y="1028.1823"
       id="text3349"
       sodipodi:linespacing="125%"><tspan
         sodipodi:role="line"
         id="tspan3351"
         x="351.33932"
         y="1028.1823">Swift poetry</tspan></text>
  </g>
</svg>
