<?xml version="1.0" encoding="UTF-8" standalone="no"?>
<!-- Created with Inkscape (http://www.inkscape.org/) -->

<svg
   xmlns:dc="http://purl.org/dc/elements/1.1/"
   xmlns:cc="http://creativecommons.org/ns#"
   xmlns:rdf="http://www.w3.org/1999/02/22-rdf-syntax-ns#"
   xmlns:svg="http://www.w3.org/2000/svg"
   xmlns="http://www.w3.org/2000/svg"
   xmlns:sodipodi="http://sodipodi.sourceforge.net/DTD/sodipodi-0.dtd"
   xmlns:inkscape="http://www.inkscape.org/namespaces/inkscape"
   width="300mm"
   height="75mm"
   viewBox="0 0 1062.9921 265.74803"
   id="svg2"
   version="1.1"
   inkscape:version="0.91 r13725"
   sodipodi:docname="logo.svg">
  <defs
     id="defs4" />
  <sodipodi:namedview
     id="base"
     pagecolor="#ffffff"
     bordercolor="#666666"
     borderopacity="1.0"
     inkscape:pageopacity="0.0"
     inkscape:pageshadow="2"
     inkscape:zoom="1"
     inkscape:cx="584.93366"
     inkscape:cy="87.595838"
     inkscape:document-units="px"
     inkscape:current-layer="text3349"
     showgrid="false"
     inkscape:window-width="1276"
     inkscape:window-height="756"
     inkscape:window-x="0"
     inkscape:window-y="22"
     inkscape:window-maximized="1"
     fit-margin-top="0"
     fit-margin-left="0"
     fit-margin-right="0"
     fit-margin-bottom="0"
     showborder="true"
     inkscape:showpageshadow="true" />
  <metadata
     id="metadata7">
    <rdf:RDF>
      <cc:Work
         rdf:about="">
        <dc:format>image/svg+xml</dc:format>
        <dc:type
           rdf:resource="http://purl.org/dc/dcmitype/StillImage" />
        <dc:title />
      </cc:Work>
    </rdf:RDF>
  </metadata>
  <g
     inkscape:label="Layer 1"
     inkscape:groupmode="layer"
     id="layer1"
     transform="translate(-4.320869e-7,-786.61418)">
    <g
       id="g3343"
       transform="matrix(0.5,0,0,0.5,2.664812,520.28947)">
      <g
         transform="matrix(0.99946826,-0.06088283,0.06096777,0.99807584,-12.507941,298.45599)"
         id="g4407">
        <path
           id="rect3227"
           sodipodi:nodetypes="cccccccc"
           style="fill:#f05138;fill-opacity:1;stroke-width:0"
           inkscape:connector-curvature="0"
           d="m -13.146445,420.67138 82.378586,-76.84439 62.362399,-89.34878 329.56751,230.16098 129.9088,306.7759 -6.5338,-3.42773 -319.77054,-74.37754 z" />
        <path
           id="rect3243"
           style="fill:#ffffff;stroke-width:0"
           inkscape:connector-curvature="0"
           d="m 333.27653,576.069 7.11848,-9.55985 250.16463,218.50541 1.14579,6.43924 -9.38394,-3.42887 z"
           sodipodi:nodetypes="cccccc" />
      </g>
      <path
         sodipodi:nodetypes="cccccccccccccccccccc"
         id="path3453"
         d="m 360.75729,900.15949 c -30.74396,17.76 -73.01067,19.59 -115.53376,1.36 -34.42867,-14.65 -62.99714,-40.29 -81.31025,-69.59 8.7903,7.33 19.04564,13.19 30.03351,18.31 43.91488,20.59 87.82242,19.18 118.71299,0.1 -0.0144,0 -0.0297,0 -0.0439,-0.1 -43.95148,-33.69 -81.31026,-77.64 -109.1462,-113.54 -5.86021,-5.86 -10.25535,-13.18 -14.6505,-19.78 33.69614,30.77 87.17045,69.59 106.21611,80.58 -40.28887,-42.48 -76.18261,-95.23 -74.71755,-93.76 63.72968,64.46 123.06415,101.09 123.06415,101.09 1.9706,1.1 3.4796,2.03 4.7028,2.85 1.282,-3.27 2.4027,-6.66 3.355,-10.18 10.2553,-37.36 -1.465,-79.84 -27.10337,-115 59.33447,35.89 94.49567,103.28 79.84517,159.69 -0.3882,1.52 -0.7984,3.02 -1.2453,4.49 0.1685,0.22 0.3369,0.42 0.5128,0.63 29.301,36.63 16.54933,51.37 16.54933,51.37 -38.69065,-12.58 -44.29003,-4.83 -59.24093,1.48 z"
         inkscape:connector-curvature="0"
         style="fill:#ffffff" />
    </g>
    <path
       id="rect3243-6"
       style="fill:#ffffff;stroke-width:0"
       inkscape:connector-curvature="0"
       d="m 1433.4063,474.91534 11.1194,-12.96398 200.6398,172.09143 3.2378,12.9473 -14.357,0.0166 z"
       sodipodi:nodetypes="cccccc" />
    <g
       style="font-style:normal;font-variant:normal;font-weight:100;font-stretch:normal;font-size:144.37493896px;line-height:125%;font-family:'.SF Compact Rounded';-inkscape-font-specification:'.SF Compact Rounded, Thin';text-align:start;letter-spacing:0px;word-spacing:0px;writing-mode:lr-tb;text-anchor:start;fill:#000000;fill-opacity:1;stroke:none;stroke-width:1px;stroke-linecap:butt;stroke-linejoin:miter;stroke-opacity:1"
       id="text3349">
      <path
         d="m 359.86929,1008.373 c 0,5.2167 4.65271,12.2662 10.78582,16.2845 5.63965,3.8067 13.11218,5.7806 21.43066,5.7806 19.73876,0 32.56895,-10.3628 32.56895,-26.3653 0,-13.46469 -6.90856,-20.16177 -26.29485,-25.51943 l -11.34978,-3.10181 c -13.88763,-3.80676 -19.31579,-9.44641 -19.31579,-19.73876 0,-12.8302 9.65789,-20.93719 25.09642,-20.93719 12.97119,0 22.84057,6.34461 24.53246,15.86151 0.28199,1.26892 1.19843,2.04437 2.46735,2.04437 1.33941,0 2.32635,-1.05743 2.32635,-2.32635 0,-5.07569 -3.73626,-10.92682 -9.37591,-14.73358 -5.14618,-3.52478 -12.40722,-5.49865 -20.02074,-5.49865 -18.39935,0 -30.2426,10.01037 -30.2426,25.58989 0,12.47772 6.90856,20.09124 22.06511,24.25048 l 11.70227,3.24279 c 17.13042,4.65271 23.26354,10.29236 23.26354,21.28963 0,12.6187 -11.1383,21.2897 -27.0703,21.2897 -13.95813,0 -24.25048,-6.6266 -27.42278,-17.6239 -0.63446,-1.5509 -1.55091,-2.2559 -2.74933,-2.2559 -1.33942,0 -2.39685,1.0575 -2.39685,2.4674 z"
         style=""
         id="path4186" />
      <path
         d="m 454.54485,1025.0804 c 0.77545,2.6789 1.6214,3.8068 3.59528,3.8068 2.18536,0 2.81982,-1.3394 3.59527,-3.8772 l 19.87975,-62.8821 0.28198,0 20.02075,62.9525 c 0.84595,2.6789 1.6214,3.8068 3.59527,3.8068 2.11487,0 2.81983,-1.3394 3.52478,-3.8772 l 18.11736,-65.91341 c 0.28199,-0.84595 0.28199,-1.33942 0.28199,-1.83289 0,-1.48041 -1.19843,-2.32635 -2.53784,-2.32635 -1.33942,0 -2.04438,0.70495 -2.53784,2.60833 l -16.77795,63.79852 -0.35248,0 -19.87975,-63.02306 c -0.84595,-2.74933 -1.5509,-3.80677 -3.52478,-3.80677 -2.18536,0 -2.89032,1.19843 -3.66577,3.87726 l -19.80926,62.95257 -0.35248,0 -16.70745,-63.72802 c -0.49347,-1.90338 -1.26892,-2.60834 -2.60833,-2.60834 -1.40991,0 -2.60834,0.91645 -2.60834,2.39685 0,0.56397 0,1.05744 0.21149,1.90338 l 18.25835,65.77233 z"
         style=""
         id="path4188" />
      <path
         d="m 541.6069,935.90354 c 0,2.60834 2.04437,4.65271 4.65271,4.65271 2.67883,0 4.7232,-2.04437 4.7232,-4.65271 0,-2.67883 -2.04437,-4.7232 -4.7232,-4.7232 -2.60834,0 -4.65271,2.04437 -4.65271,4.7232 z m 7.19055,90.23436 0,-68.73321 c 0,-1.6214 -1.05744,-2.74932 -2.53784,-2.74932 -1.40991,0 -2.46735,1.05743 -2.46735,2.74932 l 0,68.73321 c 0,1.6919 1.05744,2.7493 2.53784,2.7493 1.48041,0 2.46735,-1.0574 2.46735,-2.7493 z"
         style=""
         id="path4190" />
      <path
         d="m 581.64838,1026.1379 0,-66.19537 17.27142,0 c 1.40991,0 2.46734,-0.84594 2.46734,-2.32635 0,-1.40991 -1.05743,-2.25586 -2.46734,-2.25586 l -17.27142,0 0,-10.15136 c 0,-9.79889 4.22974,-13.18267 13.11218,-13.18267 2.81982,0 6.55609,0.63446 7.54303,0.63446 1.40991,0 2.04437,-0.98694 2.04437,-1.97388 0,-1.19842 -0.77545,-1.83289 -1.83289,-2.18536 -1.05743,-0.35248 -4.7232,-0.91645 -7.33154,-0.91645 -12.6187,0 -18.54033,5.14618 -18.54033,18.32885 l 0,9.44641 -10.71533,0 c -1.40991,0 -2.46735,0.84595 -2.46735,2.25586 0,1.48041 1.05744,2.32635 2.46735,2.32635 l 10.71533,0 0,66.19537 c 0,1.6214 0.98694,2.7493 2.46734,2.7493 1.55091,0 2.53784,-1.1279 2.53784,-2.7493 z"
         style=""
         id="path4192" />
      <path
         d="m 620.13896,1012.6732 c 0,12.8302 4.93469,16.778 18.11736,16.778 3.94775,0 5.85113,-0.423 6.90856,-0.705 0.77546,-0.2115 1.6919,-0.8459 1.6919,-2.1853 0,-1.3395 -0.98694,-1.9739 -1.90338,-1.9739 -1.48041,0 -2.67883,0.4934 -6.62659,0.4934 -9.09393,0 -13.18267,-2.6788 -13.18267,-11.4907 l 0,-53.64717 18.04687,0 c 1.40991,0 2.46734,-0.84594 2.46734,-2.32635 0,-1.40991 -1.05743,-2.25586 -2.46734,-2.25586 l -18.04687,0 0,-15.29754 c 0,-1.69189 -0.91644,-2.74933 -2.53784,-2.74933 -1.5509,0 -2.46734,1.05744 -2.46734,2.74933 l 0,15.29754 -10.43335,0 c -1.48041,0 -2.53784,0.84595 -2.53784,2.25586 0,1.48041 1.05743,2.32635 2.53784,2.32635 l 10.43335,0 0,52.73067 z"
         style=""
         id="path4194" />
      <path
         d="m 696.1332,998.22163 0,-12.97118 c 0,-13.81714 8.52997,-26.57684 24.03899,-26.57684 12.8302,0 22.98156,9.6579 22.98156,26.99981 l 0,11.91375 c 0,18.82233 -11.0678,27.35233 -22.98156,27.35233 -14.59258,0 -24.03899,-11.7728 -24.03899,-26.71787 z m 0,51.39127 0,-35.8822 0.35248,0 c 1.97388,5.9921 8.81195,15.8615 23.898,15.8615 14.66308,0 27.77526,-10.2219 27.77526,-30.73611 l 0,-14.2401 c 0,-18.75183 -11.63177,-30.52459 -27.56377,-30.52459 -16.35498,0 -22.91107,11.42028 -24.25048,16.0025 l -0.28198,0 0,-12.40722 c 0,-1.6919 -0.91645,-2.74933 -2.46735,-2.74933 -1.48041,0 -2.46734,1.05743 -2.46734,2.74933 l 0,91.92622 c 0,1.6214 0.98693,2.7493 2.53784,2.7493 1.4804,0 2.46734,-1.1279 2.46734,-2.7493 z"
         style=""
         id="path4196" />
      <path
         d="m 795.0385,954.0914 c -16.63696,0 -29.46715,10.99731 -29.46715,32.07549 l 0,11.49078 c 0,21.00763 13.04168,31.93453 29.46715,31.93453 16.35497,0 29.60814,-10.9269 29.60814,-31.93453 l 0,-11.49078 c 0,-20.7962 -13.32366,-32.07549 -29.60814,-32.07549 z m 0,4.58221 c 13.88763,0 24.60295,9.86938 24.60295,28.19823 l 0,10.08087 c 0,18.68129 -10.64483,27.98679 -24.53246,27.98679 -14.09911,0 -24.53246,-9.5169 -24.53246,-27.98679 l 0,-10.08087 c 0,-18.54033 10.57434,-28.19823 24.46197,-28.19823 z"
         style=""
         id="path4198" />
      <path
         d="m 842.27053,996.38875 c 0,21.28965 10.78583,33.20345 29.46716,33.20345 7.825,0 14.2401,-2.2559 18.04686,-5.2872 4.44122,-3.3133 7.04956,-8.389 7.04956,-10.1514 0,-1.1279 -0.84595,-2.2558 -2.25586,-2.2558 -0.98694,0 -1.5509,0.4934 -2.60833,1.9738 -1.55091,2.3969 -6.4856,11.0679 -20.23223,11.0679 -14.87457,0 -24.53247,-9.9399 -24.53247,-28.69174 l 0,-4.22974 47.79601,0 c 2.46734,0 3.59527,-1.5509 3.59527,-4.01825 0,-22.2766 -11.49078,-33.90837 -28.12774,-33.90837 -16.70745,0 -28.19823,11.70227 -28.19823,34.11986 l 0,8.17749 z m 4.93469,-8.95294 0,-0.28198 c 0,-18.04687 9.30542,-28.48022 23.26354,-28.48022 13.95813,0 23.12255,10.43335 23.12255,28.48022 l 0,0.28198 -46.38609,0 z"
         style=""
         id="path4200" />
      <path
         d="m 922.42397,1012.6732 c 0,12.8302 4.93469,16.778 18.11737,16.778 3.94775,0 5.85113,-0.423 6.90856,-0.705 0.77545,-0.2115 1.6919,-0.8459 1.6919,-2.1853 0,-1.3395 -0.98694,-1.9739 -1.90338,-1.9739 -1.48041,0 -2.67883,0.4934 -6.62659,0.4934 -9.09393,0 -13.18267,-2.6788 -13.18267,-11.4907 l 0,-53.64717 18.04687,0 c 1.40991,0 2.46734,-0.84594 2.46734,-2.32635 0,-1.40991 -1.05743,-2.25586 -2.46734,-2.25586 l -18.04687,0 0,-15.29754 c 0,-1.69189 -0.91644,-2.74933 -2.53784,-2.74933 -1.5509,0 -2.46735,1.05744 -2.46735,2.74933 l 0,15.29754 -10.43334,0 c -1.48041,0 -2.53784,0.84595 -2.53784,2.25586 0,1.48041 1.05743,2.32635 2.53784,2.32635 l 10.43334,0 0,52.73067 z"
         style=""
         id="path4202" />
      <path
         d="m 968.81008,1026.1379 0,-42.72034 c 0,-17.13042 9.86938,-24.60296 21.00768,-24.60296 2.46735,0 3.87726,0.141 5.00519,0.0705 1.5509,-0.14099 1.90338,-1.19842 1.90338,-2.11487 0,-0.98694 -0.56396,-1.69189 -1.76239,-2.11486 -1.05743,-0.42298 -2.67883,-0.56397 -4.93469,-0.56397 -12.6892,0 -18.89281,7.54303 -21.14867,15.36804 l -0.0705,0 0,-12.05475 c 0,-1.6214 -1.05743,-2.74932 -2.53784,-2.74932 -1.5509,0 -2.46734,1.12792 -2.46734,2.74932 l 0,68.73321 c 0,1.6214 0.98693,2.7493 2.53784,2.7493 1.4804,0 2.46734,-1.1279 2.46734,-2.7493 z"
         style=""
         id="path4204" />
      <path
         d="m 1008.5696,1048.9784 c 0,1.0575 0.6345,1.6214 1.7624,2.0444 1.2689,0.4935 3.0313,0.705 5.4987,0.705 9.7283,0 14.663,-4.3708 18.5403,-15.0156 l 28.1982,-77.47462 c 0.3525,-0.84595 0.423,-1.48041 0.423,-1.97388 0,-1.5509 -1.1984,-2.32635 -2.5378,-2.32635 -1.0575,0 -1.9739,0.70495 -2.4674,2.32635 l -23.2635,65.7724 -0.282,0 -23.616,-65.7019 c -0.564,-1.6919 -1.4099,-2.39685 -2.4674,-2.39685 -1.4099,0 -2.6788,0.84594 -2.6788,2.39685 0,0.49347 0.141,1.12793 0.4935,1.97387 l 25.8718,69.79063 -2.6083,7.0496 c -2.3264,6.556 -6.2741,11.0678 -13.5352,11.0678 -1.8328,0 -3.7362,-0.282 -4.6527,-0.282 -1.4804,0 -2.6788,0.5639 -2.6788,2.0443 z"
         style=""
         id="path4206" />
    </g>
  </g>
</svg>
