<?xml version="1.0" encoding="UTF-8" standalone="no"?>
<svg width="164px" xmlns="http://www.w3.org/2000/svg" viewBox="0 0 164 48" version="1.1" height="48px">
 <path d="m47.2 12.3c0-1-0.1-2.1-0.3-3.1s-0.5-2-1-3c-0.5-0.9-1.1-1.8-1.8-2.5s-1.6-1.4-2.5-1.8c-0.9-0.5-1.9-0.8-2.9-1s-2.1-0.2-3.1-0.3h-1.4-1.7-12.5-5.2-1.7-1.4-0.8c-0.8 0-1.6 0.1-2.3 0.2-0.8 0.1-1.5 0.3-2.2 0.6-0.2 0.1-0.5 0.2-0.7 0.3-0.7 0.4-1.3 0.8-1.9 1.3-0.2 0.2-0.4 0.3-0.6 0.5-0.7 0.7-1.4 1.6-1.8 2.5-0.5 0.9-0.8 1.9-1 3-0.2 1-0.2 2.1-0.3 3.1v1.4 1.7 7.7 10 1.7 1.4c0 1 0.1 2.1 0.3 3.1s0.5 2 1 3c0.5 0.9 1.1 1.8 1.8 2.5s1.6 1.4 2.5 1.8c0.9 0.5 1.9 0.8 2.9 1s2.1 0.2 3.1 0.3h1.4 1.7 17.7 1.7 1.4c1 0 2.1-0.1 3.1-0.3s2-0.5 2.9-1 1.8-1.1 2.5-1.8 1.4-1.6 1.8-2.5c0.5-0.9 0.8-1.9 1-3 0.2-1 0.2-2.1 0.3-3.1v-1.4-1.7-17.7-1.5-1.4z" fill="#F05138"/>
 <path d="m31.572 37.014c-4.197 2.425-9.967 2.674-15.772 0.186-4.7-2-8.6-5.5-11.1-9.5 1.2 1 2.6 1.8 4.1 2.5 5.995 2.81 11.989 2.618 16.206 0.007-0.002-0.002-0.004-0.005-0.006-0.007-6-4.6-11.1-10.6-14.9-15.5-0.8-0.8-1.4-1.8-2-2.7 4.6 4.2 11.9 9.5 14.5 11-5.5-5.8-10.4-13-10.2-12.8 8.7 8.8 16.8 13.8 16.8 13.8 0.269 0.151 0.475 0.277 0.642 0.389 0.175-0.446 0.328-0.909 0.458-1.389 1.4-5.1-0.2-10.9-3.7-15.7 8.1 4.9 12.9 14.1 10.9 21.8-0.053 0.208-0.109 0.413-0.17 0.614 0.023 0.029 0.046 0.057 0.07 0.086 4 5 2.9 10.3 2.4 9.3-2.17-4.245-6.187-2.947-8.228-2.086z" fill="#FEFEFE"/>
 <path d="m153.5 21h-11.6v-1.5c0-1.2 0.1-2.4 0.2-3.6s0.4-2.2 0.8-3 1-1.5 1.7-2c0.8-0.5 1.8-0.8 3-0.8 0.8 0 1.4 0.1 1.9 0.2 0.5 0.2 0.9 0.3 1.3 0.5l0.8-2c-0.4-0.2-0.9-0.4-1.6-0.6-0.6-0.2-1.4-0.3-2.2-0.3-1.6 0-2.9 0.3-4 0.9s-2 1.5-2.7 2.5c-0.6 1-1.1 2.3-1.4 3.7s-0.4 3-0.4 4.6v1.5h-3.8v2h3.8v24.2h2.6v-24.3h11.7-0.1v16.6c0 1.2 0.1 2.3 0.3 3.3 0.1 1 0.5 1.9 0.9 2.6s1 1.3 1.8 1.7 1.8 0.6 3 0.6c1.5 0 2.6-0.2 3.5-0.6l-0.3-2c-0.3 0.1-0.7 0.2-1.2 0.3s-1 0.1-1.7 0.1c-1.4 0-2.3-0.5-2.9-1.4-0.5-0.9-0.8-2.3-0.8-4v-17.1h7.3v-2h-7.3v-5.8l-2.6 0.8v4.9zm0.1 0h0.1-0.1zm0.1 2h-0.1zm-90.8 20.3c1 0.7 2.2 1.3 3.6 1.7 1.3 0.4 2.8 0.7 4.3 0.7 2.7 0 4.9-0.7 6.4-2.1s2.3-3.3 2.3-5.5c0-2.1-0.6-3.8-1.7-5.1s-3-2.5-5.6-3.6c-2.8-1-5.1-2.3-6.8-3.9s-2.5-3.7-2.5-6.2c0-1.3 0.3-2.6 0.8-3.7s1.3-2.1 2.2-2.9 2-1.5 3.3-1.9c1.3-0.5 2.7-0.7 4.2-0.7 1.7 0 3.2 0.2 4.4 0.5 1.2 0.4 2.1 0.7 2.7 1.1l-1 2.2c-0.5-0.4-1.3-0.7-2.4-1.1s-2.4-0.6-3.9-0.6-2.7 0.2-3.7 0.6-1.8 1-2.4 1.6c-0.6 0.7-1 1.4-1.3 2.2s-0.4 1.5-0.4 2.3c0 2 0.6 3.7 1.8 4.9s3.1 2.3 5.7 3.4c1.5 0.6 2.8 1.3 3.9 2s2.1 1.5 2.9 2.3 1.3 1.8 1.7 2.8c0.4 1.1 0.6 2.3 0.6 3.6s-0.2 2.6-0.7 3.9c-0.5 1.2-1.2 2.3-2.2 3.2s-2.2 1.7-3.6 2.2-3.1 0.8-5 0.8c-0.8 0-1.6-0.1-2.4-0.2s-1.6-0.3-2.4-0.5-1.5-0.5-2.2-0.8-1.3-0.6-1.7-0.9l1.1-2.3zm24-22.2l4.3 14.9c0.4 1.5 0.8 3 1.2 4.3s0.7 2.7 1 3.9h0.2c0.3-1.2 0.7-2.5 1.1-3.9s0.9-2.8 1.4-4.3l5.1-14.9h2.4l4.9 14.7c0.5 1.6 1 3.1 1.4 4.5s0.8 2.7 1.1 3.9h0.2c0.3-1.3 0.6-2.6 1-3.9s0.8-2.8 1.3-4.4l4.6-14.8h2.6l-8.6 26.2h-2.1l-4.9-14.6c-0.5-1.6-1-3.1-1.5-4.5-0.4-1.4-0.8-2.9-1.1-4.4h-0.1c-0.4 1.6-0.8 3.1-1.3 4.5s-1 2.9-1.5 4.5l-5.1 14.5h-2.2l-8-26.2h2.6zm39.3 0h2.6v26.2h-2.6v-26.2zm-1-8c0-0.6 0.2-1.1 0.6-1.6 0.4-0.4 0.9-0.7 1.6-0.7 0.6 0 1.1 0.2 1.6 0.7 0.4 0.4 0.7 1 0.7 1.6s-0.2 1.1-0.7 1.6c-0.4 0.4-1 0.6-1.6 0.6s-1.1-0.2-1.6-0.6c-0.4-0.5-0.6-1-0.6-1.6z" fill="#221F20"/>
</svg>
